<svg width="42" height="45" viewBox="0 0 42 45" fill="none" xmlns="http://www.w3.org/2000/svg">
<g id="instagram" filter="url(#filter0_d_1_20)">
<path id="Vector" d="M29.9 8.76667C29.5044 8.76667 29.1178 8.88397 28.7889 9.10373C28.46 9.32349 28.2036 9.63585 28.0522 10.0013C27.9009 10.3668 27.8613 10.7689 27.9384 11.1568C28.0156 11.5448 28.2061 11.9012 28.4858 12.1809C28.7655 12.4606 29.1219 12.6511 29.5098 12.7282C29.8978 12.8054 30.2999 12.7658 30.6654 12.6144C31.0308 12.463 31.3432 12.2067 31.5629 11.8778C31.7827 11.5489 31.9 11.1622 31.9 10.7667C31.9 10.2362 31.6893 9.72753 31.3142 9.35245C30.9391 8.97738 30.4304 8.76667 29.9 8.76667ZM37.5667 12.8C37.5343 11.4172 37.2753 10.049 36.8 8.75C36.3762 7.63855 35.7167 6.63213 34.8667 5.8C34.0414 4.94571 33.0326 4.29029 31.9167 3.88333C30.6211 3.3936 29.2514 3.12868 27.8667 3.1C26.1 3 25.5333 3 21 3C16.4667 3 15.9 3 14.1333 3.1C12.7486 3.12868 11.3789 3.3936 10.0833 3.88333C8.96947 4.29441 7.96157 4.94927 7.13334 5.8C6.27905 6.6253 5.62364 7.63407 5.21668 8.75C4.72694 10.0456 4.46203 11.4153 4.43334 12.8C4.33334 14.5667 4.33334 15.1333 4.33334 19.6667C4.33334 24.2 4.33334 24.7667 4.43334 26.5333C4.46203 27.9181 4.72694 29.2878 5.21668 30.5833C5.62364 31.6993 6.27905 32.708 7.13334 33.5333C7.96157 34.3841 8.96947 35.0389 10.0833 35.45C11.3789 35.9397 12.7486 36.2047 14.1333 36.2333C15.9 36.3333 16.4667 36.3333 21 36.3333C25.5333 36.3333 26.1 36.3333 27.8667 36.2333C29.2514 36.2047 30.6211 35.9397 31.9167 35.45C33.0326 35.043 34.0414 34.3876 34.8667 33.5333C35.7204 32.7043 36.3806 31.697 36.8 30.5833C37.2753 29.2843 37.5343 27.9162 37.5667 26.5333C37.5667 24.7667 37.6667 24.2 37.6667 19.6667C37.6667 15.1333 37.6667 14.5667 37.5667 12.8ZM34.5667 26.3333C34.5545 27.3913 34.3629 28.4395 34 29.4333C33.7339 30.1587 33.3065 30.814 32.75 31.35C32.2094 31.9008 31.5554 32.3274 30.8333 32.6C29.8395 32.9629 28.7913 33.1545 27.7333 33.1667C26.0667 33.25 25.45 33.2667 21.0667 33.2667C16.6833 33.2667 16.0667 33.2667 14.4 33.1667C13.3015 33.1872 12.2077 33.0181 11.1667 32.6667C10.4763 32.3801 9.85227 31.9546 9.33334 31.4167C8.78016 30.8812 8.35808 30.2253 8.10001 29.5C7.6931 28.4919 7.46742 27.4199 7.43334 26.3333C7.43334 24.6667 7.33334 24.05 7.33334 19.6667C7.33334 15.2833 7.33334 14.6667 7.43334 13C7.44081 11.9184 7.63826 10.8466 8.01668 9.83333C8.31009 9.12985 8.76045 8.50276 9.33334 8C9.8397 7.42695 10.4655 6.97183 11.1667 6.66667C12.1826 6.30007 13.2533 6.10847 14.3333 6.1C16 6.1 16.6167 6 21 6C25.3833 6 26 6 27.6667 6.1C28.7246 6.11213 29.7728 6.30374 30.7667 6.66667C31.5241 6.94775 32.2038 7.40474 32.75 8C33.2962 8.51196 33.7229 9.13789 34 9.83333C34.3704 10.8482 34.5622 11.9196 34.5667 13C34.65 14.6667 34.6667 15.2833 34.6667 19.6667C34.6667 24.05 34.65 24.6667 34.5667 26.3333ZM21 11.1167C19.3097 11.12 17.6583 11.6242 16.2544 12.5657C14.8506 13.5072 13.7573 14.8437 13.1127 16.4063C12.4682 17.9689 12.3012 19.6874 12.633 21.3449C12.9648 23.0023 13.7804 24.5242 14.9768 25.7183C16.1732 26.9124 17.6967 27.725 19.3548 28.0536C21.0129 28.3821 22.7311 28.2118 24.2925 27.5642C25.8538 26.9166 27.1881 25.8207 28.1269 24.4151C29.0656 23.0094 29.5667 21.357 29.5667 19.6667C29.5689 18.5418 29.3487 17.4277 28.9187 16.3883C28.4888 15.3488 27.8576 14.4047 27.0615 13.6101C26.2653 12.8155 25.3199 12.1861 24.2797 11.7582C23.2394 11.3303 22.1248 11.1123 21 11.1167ZM21 25.2167C19.9023 25.2167 18.8293 24.8912 17.9166 24.2813C17.0039 23.6715 16.2925 22.8047 15.8725 21.7906C15.4524 20.7764 15.3425 19.6605 15.5567 18.5839C15.7708 17.5073 16.2994 16.5184 17.0756 15.7422C17.8517 14.966 18.8407 14.4375 19.9173 14.2233C20.9939 14.0092 22.1098 14.1191 23.1239 14.5391C24.138 14.9592 25.0048 15.6706 25.6147 16.5833C26.2245 17.4959 26.55 18.569 26.55 19.6667C26.55 20.3955 26.4065 21.1172 26.1275 21.7906C25.8486 22.4639 25.4398 23.0757 24.9245 23.5911C24.4091 24.1065 23.7973 24.5153 23.1239 24.7942C22.4505 25.0731 21.7288 25.2167 21 25.2167Z" fill="white"/>
</g>
<defs>
<filter id="filter0_d_1_20" x="-3" y="0" width="48" height="48" filterUnits="userSpaceOnUse" color-interpolation-filters="sRGB">
<feFlood flood-opacity="0" result="BackgroundImageFix"/>
<feColorMatrix in="SourceAlpha" type="matrix" values="0 0 0 0 0 0 0 0 0 0 0 0 0 0 0 0 0 0 127 0" result="hardAlpha"/>
<feOffset dy="4"/>
<feGaussianBlur stdDeviation="2"/>
<feComposite in2="hardAlpha" operator="out"/>
<feColorMatrix type="matrix" values="0 0 0 0 0 0 0 0 0 0 0 0 0 0 0 0 0 0 0.25 0"/>
<feBlend mode="normal" in2="BackgroundImageFix" result="effect1_dropShadow_1_20"/>
<feBlend mode="normal" in="SourceGraphic" in2="effect1_dropShadow_1_20" result="shape"/>
</filter>
</defs>
</svg>
